<svg width="496" height="147" viewBox="0 0 496 147" fill="none" xmlns="http://www.w3.org/2000/svg">
<g opacity="0.7">
<path d="M456.502 0.00047775H39.5206C38.0007 0.00047775 36.499 0.00047775 34.9831 0.00782775C33.7141 0.0151778 32.4552 0.0365295 31.1741 0.0545002C28.3908 0.0835394 25.6141 0.300638 22.868 0.70391C20.1258 1.11596 17.4696 1.89279 14.989 3.00813C12.5115 4.13291 10.2477 5.59444 8.2798 7.33971C6.30156 9.08007 4.65254 11.0917 3.39615 13.2972C2.1363 15.4984 1.26272 17.8571 0.805568 20.2919C0.344075 22.7237 0.0957413 25.1835 0.0627958 27.6493C0.0243308 28.776 0.0202687 29.9065 0 31.0334V115.978C0.0202687 117.119 0.0243308 118.225 0.0627958 119.366C0.0957514 121.832 0.344085 124.292 0.805568 126.723C1.26145 129.16 2.13509 131.52 3.39615 133.722C4.65197 135.92 6.30122 137.923 8.2798 139.654C10.2403 141.407 12.5055 142.87 14.989 143.986C17.4695 145.104 20.1255 145.886 22.868 146.304C25.6145 146.704 28.391 146.921 31.1741 146.954C32.4552 146.979 33.7141 146.993 34.9831 146.993C36.4989 147 38.0008 147 39.5206 147H456.502C457.991 147 459.505 147 460.995 146.993C462.258 146.993 463.553 146.979 464.816 146.954C467.594 146.923 470.365 146.706 473.106 146.304C475.857 145.883 478.523 145.101 481.015 143.986C483.496 142.869 485.76 141.407 487.718 139.654C489.692 137.917 491.345 135.915 492.616 133.722C493.868 131.518 494.733 129.158 495.182 126.723C495.644 124.291 495.902 121.832 495.951 119.366C495.968 118.225 495.968 117.119 495.968 115.978C496 114.643 496 113.315 496 111.959V35.0458C496 33.6999 496 32.3649 495.968 31.0334C495.968 29.9065 495.968 28.776 495.951 27.6491C495.902 25.1831 495.644 22.7239 495.182 20.2918C494.732 17.8583 493.866 15.4998 492.616 13.2971C490.057 8.87632 486 5.27787 481.015 3.0078C478.523 1.89519 475.857 1.11856 473.106 0.703579C470.365 0.29853 467.594 0.0813563 464.816 0.0539857C463.553 0.0360518 462.258 0.0145163 460.995 0.00735C459.505 0 457.991 0.00047775 456.502 0.00047775Z" fill="black"/>
<path d="M35.0033 143.784C33.7404 143.784 32.5081 143.77 31.2551 143.745C28.6594 143.715 26.0699 143.515 23.5076 143.146C21.1184 142.781 18.804 142.102 16.6405 141.132C14.4969 140.17 12.5418 138.909 10.8501 137.396C9.1338 135.901 7.70495 134.168 6.62011 132.264C5.52331 130.348 4.76426 128.294 4.36941 126.174C3.94299 123.896 3.71229 121.592 3.67927 119.283C3.65299 118.508 3.61859 115.927 3.61859 115.927V31.0329C3.61859 31.0329 3.65523 28.492 3.67948 27.7455C3.71109 25.4401 3.94045 23.1402 4.36559 20.8656C4.76118 18.7397 5.52081 16.6799 6.6182 14.7574C7.69905 12.8549 9.11998 11.12 10.8259 9.61993C12.5299 8.10561 14.4913 6.83767 16.6385 5.86235C18.797 4.8954 21.1071 4.22154 23.4914 3.86337C26.0621 3.4906 28.6606 3.28906 31.2653 3.26045L35.0053 3.21558H460.974L464.759 3.26225C467.34 3.28944 469.915 3.48918 472.462 3.85977C474.871 4.22243 477.205 4.90099 479.388 5.87312C483.69 7.83868 487.19 10.9484 489.398 14.7664C490.478 16.6755 491.226 18.7186 491.616 20.8261C492.047 23.1193 492.287 25.4373 492.337 27.7616C492.349 28.8024 492.349 29.9203 492.349 31.0329C492.382 32.411 492.381 33.7227 492.381 35.0452V111.958C492.381 113.293 492.382 114.596 492.349 115.909C492.349 117.105 492.349 118.199 492.333 119.326C492.284 121.609 492.047 123.886 491.624 126.138C491.237 128.273 490.483 130.343 489.386 132.275C488.293 134.158 486.873 135.877 485.176 137.367C483.483 138.888 481.524 140.157 479.376 141.125C477.199 142.103 474.868 142.784 472.462 143.146C469.9 143.517 467.31 143.717 464.714 143.745C463.5 143.77 462.229 143.784 460.995 143.784L456.502 143.792L35.0033 143.784Z" fill="white"/>
<path d="M103.61 73.0933C103.656 69.9036 104.612 66.776 106.388 64.0017C108.164 61.2274 110.702 58.8964 113.767 57.2257C111.82 54.7602 109.251 52.7311 106.265 51.2997C103.279 49.8683 99.9573 49.074 96.5642 48.9799C89.3261 48.3063 82.3092 52.82 78.6208 52.82C74.861 52.82 69.1822 49.0468 63.067 49.1583C59.1115 49.2716 55.2566 50.2915 51.8779 52.1184C48.4991 53.9454 45.7118 56.5172 43.7874 59.5832C35.4514 72.3796 41.6693 91.186 49.6546 101.53C53.6498 106.595 58.319 112.252 64.4287 112.052C70.4074 111.832 72.6403 108.672 79.857 108.672C87.0067 108.672 89.1016 112.052 95.3353 111.924C101.751 111.832 105.793 106.837 109.648 101.724C112.518 98.1148 114.727 94.126 116.193 89.9053C112.465 88.5077 109.285 86.1681 107.047 83.1785C104.81 80.1888 103.614 76.6813 103.61 73.0933Z" fill="black"/>
<path d="M91.8357 42.1772C95.3336 38.4542 97.057 33.6688 96.6397 28.8374C91.2956 29.3351 86.3592 31.5996 82.814 35.1798C81.0807 36.9288 79.7531 38.9636 78.9072 41.1678C78.0614 43.372 77.7138 45.7024 77.8843 48.0258C80.5573 48.0501 83.2016 47.5365 85.6183 46.5234C88.0349 45.5104 90.1607 44.0243 91.8357 42.1772Z" fill="black"/>
<path d="M175.338 99.7382H155.719L151.007 112.073H142.697L161.28 66.437H169.914L188.498 112.073H180.046L175.338 99.7382ZM157.751 94.0463H173.302L165.636 74.0275H165.421L157.751 94.0463Z" fill="black"/>
<path d="M228.631 95.4387C228.631 105.778 222.39 112.421 212.97 112.421C210.584 112.532 208.211 112.045 206.123 111.015C204.035 109.986 202.316 108.455 201.163 106.6H200.985V123.08H193.282V78.8007H200.738V84.3347H200.88C202.086 82.4882 203.834 80.966 205.938 79.9302C208.042 78.8944 210.423 78.3838 212.829 78.4525C222.353 78.4526 228.631 85.1279 228.631 95.4387ZM220.714 95.4387C220.714 88.7024 216.788 84.2737 210.797 84.2737C204.911 84.2737 200.953 88.7957 200.953 95.4387C200.953 102.143 204.911 106.632 210.797 106.632C216.788 106.632 220.714 102.236 220.714 95.4387Z" fill="black"/>
<path d="M269.937 95.4387C269.937 105.778 263.693 112.421 254.274 112.421C251.888 112.532 249.515 112.045 247.427 111.015C245.339 109.986 243.62 108.455 242.467 106.6H242.289V123.08H234.586V78.8007H242.042V84.3347H242.183C243.389 82.4882 245.137 80.966 247.241 79.9302C249.345 78.8944 251.727 78.3838 254.132 78.4525C263.657 78.4526 269.937 85.1279 269.937 95.4387ZM262.018 95.4387C262.018 88.7024 258.091 84.2737 252.1 84.2737C246.215 84.2737 242.256 88.7957 242.256 95.4387C242.256 102.143 246.215 106.632 252.1 106.632C258.091 106.632 262.018 102.236 262.018 95.4387Z" fill="black"/>
<path d="M297.231 99.3577C297.802 103.883 302.761 106.855 309.537 106.855C316.029 106.855 320.7 103.883 320.7 99.8026C320.7 96.2604 317.883 94.1394 311.212 92.6859L304.542 91.2611C295.09 89.237 290.702 85.3179 290.702 78.9584C290.702 71.0844 298.442 65.676 309.427 65.676C320.308 65.676 327.764 71.0844 328.015 78.9584H320.239C319.773 74.4041 315.527 71.6551 309.322 71.6551C303.117 71.6551 298.871 74.4365 298.871 78.4847C298.871 81.7111 301.583 83.6096 308.217 85.063L313.888 86.2976C324.448 88.5119 328.832 92.2731 328.832 98.9483C328.832 107.486 321.166 112.834 308.966 112.834C297.551 112.834 289.844 107.612 289.346 99.3574L297.231 99.3577Z" fill="black"/>
<path d="M345.465 70.9268V78.8007H352.601V84.2092H345.465V102.552C345.465 105.401 346.894 106.729 350.031 106.729C350.878 106.716 351.724 106.663 352.565 106.571V111.947C351.154 112.181 349.721 112.287 348.286 112.263C340.688 112.263 337.725 109.733 337.725 103.28V84.2092H332.269V78.8007H337.725V70.9268H345.465Z" fill="black"/>
<path d="M356.73 95.4387C356.73 84.97 363.684 78.3916 374.528 78.3916C385.408 78.3916 392.33 84.9699 392.33 95.4387C392.33 105.936 385.445 112.486 374.528 112.486C363.615 112.486 356.73 105.936 356.73 95.4387ZM384.481 95.4387C384.481 88.2574 380.77 84.0189 374.528 84.0189C368.286 84.0189 364.574 88.2897 364.574 95.4387C364.574 102.649 368.286 106.855 374.528 106.855C380.77 106.855 384.481 102.649 384.481 95.4387Z" fill="black"/>
<path d="M398.681 78.8007H406.028V84.4639H406.206C406.703 82.6952 407.872 81.1321 409.516 80.0374C411.159 78.9426 413.178 78.383 415.233 78.4526C416.12 78.4498 417.006 78.5353 417.872 78.7074V85.0956C416.751 84.792 415.582 84.6525 414.411 84.6829C413.292 84.6426 412.176 84.8175 411.141 85.1957C410.105 85.5738 409.174 86.1461 408.411 86.8733C407.649 87.6006 407.073 88.4655 406.723 89.4088C406.373 90.3521 406.257 91.3513 406.384 92.3379V112.073H398.681L398.681 78.8007Z" fill="black"/>
<path d="M453.387 102.301C452.351 108.341 445.716 112.486 437.228 112.486C426.311 112.486 419.535 106.001 419.535 95.5966C419.535 85.1602 426.348 78.3916 436.904 78.3916C447.287 78.3916 453.816 84.7152 453.816 94.8035V97.1434H427.311V97.5561C427.189 98.7807 427.362 100.014 427.818 101.175C428.275 102.336 429.005 103.397 429.96 104.288C430.915 105.18 432.072 105.881 433.356 106.345C434.64 106.809 436.021 107.026 437.406 106.98C439.227 107.132 441.053 106.758 442.615 105.915C444.176 105.072 445.389 103.804 446.073 102.301L453.387 102.301ZM427.347 92.3702H446.109C446.178 91.2692 445.99 90.1674 445.556 89.134C445.122 88.1005 444.452 87.1577 443.588 86.3648C442.723 85.5719 441.684 84.9459 440.533 84.5261C439.383 84.1064 438.148 83.9019 436.904 83.9256C435.65 83.919 434.406 84.1327 433.246 84.5544C432.085 84.976 431.03 85.5974 430.141 86.3825C429.253 87.1676 428.549 88.1009 428.069 89.1286C427.589 90.1563 427.344 91.258 427.347 92.3702Z" fill="black"/>
</g>
<path d="M152.278 41.3563H155.585C156.154 41.4191 156.732 41.3767 157.282 41.2318C157.832 41.0868 158.342 40.8425 158.78 40.5141C159.218 40.1856 159.575 39.7803 159.827 39.3237C160.08 38.867 160.223 38.3689 160.248 37.8607C160.248 35.8384 158.532 34.5321 155.621 34.5321C155.038 34.4598 154.444 34.4919 153.875 34.6264C153.306 34.761 152.774 34.9952 152.308 35.3154C151.843 35.6355 151.455 36.0351 151.167 36.4904C150.879 36.9458 150.696 37.4477 150.63 37.9666H147C147.062 37.0247 147.343 36.1043 147.824 35.2627C148.305 34.4211 148.976 33.6763 149.796 33.0747C150.616 32.473 151.566 32.0275 152.589 31.7658C153.611 31.504 154.683 31.4317 155.739 31.5533C160.608 31.5533 164.037 33.9704 164.037 37.4498C164.048 38.6154 163.608 39.7493 162.791 40.662C161.973 41.5748 160.827 42.2113 159.544 42.4652V42.7236C161.065 42.7835 162.498 43.3748 163.528 44.3685C164.559 45.3621 165.104 46.6772 165.045 48.0262C164.932 48.996 164.602 49.9361 164.075 50.7914C163.547 51.6468 162.832 52.4001 161.972 53.0073C161.111 53.6145 160.123 54.0633 159.065 54.3274C158.006 54.5915 156.899 54.6656 155.808 54.5454C154.714 54.6776 153.602 54.6132 152.537 54.3561C151.472 54.099 150.477 53.6544 149.61 53.0489C148.743 52.4434 148.022 51.6893 147.491 50.8316C146.96 49.974 146.629 49.0302 146.518 48.0567H150.205C150.428 50.1544 152.602 51.5075 155.808 51.5075C159.013 51.5075 161.106 49.9877 161.106 47.8451C161.106 45.6721 159.135 44.3334 155.69 44.3334H152.278V41.3563Z" fill="black"/>
<path d="M169.234 49.3344C169.234 46.3556 171.74 44.6384 176.176 44.3943L181.232 44.1359V42.7075C181.232 40.9598 179.932 39.9728 177.411 39.9728C175.354 39.9728 173.934 40.6422 173.521 41.8121H169.955C170.331 38.9697 173.351 37.1466 177.585 37.1466C182.264 37.1466 184.903 39.212 184.903 42.7075V54.0143H181.353V51.6887H181.062C180.47 52.5229 179.64 53.2029 178.655 53.6594C177.67 54.1159 176.566 54.3324 175.456 54.2869C174.672 54.3592 173.88 54.2851 173.131 54.0693C172.382 53.8536 171.692 53.5011 171.106 53.0345C170.519 52.5679 170.05 51.9975 169.728 51.3602C169.405 50.7229 169.237 50.0328 169.234 49.3344ZM181.232 47.9203V46.5369L176.674 46.7952C174.103 46.9478 172.938 47.723 172.938 49.1818C172.938 50.6712 174.395 51.5379 176.399 51.5379C176.986 51.5906 177.579 51.5381 178.143 51.3834C178.706 51.2287 179.229 50.9751 179.68 50.6376C180.131 50.3001 180.501 49.8856 180.767 49.4188C181.034 48.9519 181.192 48.4424 181.232 47.9203Z" fill="black"/>
<path d="M194.678 40.215V54.0142H190.995V37.4659H203.284V40.2148L194.678 40.215Z" fill="black"/>
<path d="M225.608 45.733C225.608 50.9906 222.608 54.287 217.897 54.287C216.74 54.3571 215.585 54.1327 214.567 53.6402C213.55 53.1478 212.712 52.4078 212.153 51.5075H211.861V59.516H208.178V37.466H211.724V40.2008H211.999C212.568 39.269 213.417 38.4948 214.451 37.9638C215.486 37.4327 216.665 37.1655 217.86 37.1916C222.608 37.1915 225.608 40.4734 225.608 45.733ZM221.819 45.733C221.819 42.2374 219.953 40.1254 216.832 40.1254C213.732 40.1254 211.793 42.2822 211.793 45.7473C211.793 49.1962 213.732 51.3549 216.816 51.3549C219.953 51.3549 221.819 49.2428 221.819 45.733Z" fill="black"/>
<path d="M230.514 59.9413V57.1294C230.912 57.1743 231.314 57.1947 231.716 57.1904C232.5 57.2419 233.279 57.0347 233.902 56.6085C234.525 56.1822 234.949 55.567 235.091 54.8809L235.367 54.0752L228.611 37.4659H232.622L237.302 50.6102H237.593L242.256 37.4659H246.162L239.204 54.6979C237.609 58.7246 235.845 60.0166 232.04 60.0166C231.732 60.0166 230.858 59.9861 230.514 59.9413Z" fill="black"/>
<path d="M249.032 49.3181H252.7C253.06 50.7771 254.602 51.5378 256.759 51.5378C259.212 51.5378 260.718 50.5796 260.718 49.0903C260.718 47.495 259.366 46.7342 256.759 46.7342H253.966V44.1969H256.711C258.937 44.1969 260.071 43.4378 260.071 42.0544C260.071 40.8395 258.974 39.9118 256.711 39.9118C254.651 39.9118 253.145 40.687 252.906 41.9934H249.356C249.621 40.4923 250.541 39.1435 251.916 38.2371C253.292 37.3307 255.013 36.9392 256.711 37.1466C261.147 37.1466 263.685 38.9249 263.685 41.7206C263.706 42.4992 263.425 43.2604 262.888 43.8771C262.352 44.4937 261.593 44.9285 260.738 45.1085V45.3669C261.756 45.4833 262.69 45.9267 263.363 46.6131C264.036 47.2994 264.401 48.1809 264.39 49.0904C264.39 52.2362 261.37 54.3175 256.759 54.3175C252.683 54.3174 249.372 52.6612 249.032 49.3181Z" fill="black"/>
<path d="M269.694 54.0142V37.4659H273.345V48.8481H273.637L282.238 37.466H285.889V54.0142H282.238V42.5712H281.963L273.345 54.0143L269.694 54.0142Z" fill="black"/>
<path d="M306.003 40.215H300.125V54.0141H296.438V40.215H290.56V37.4661H306.003V40.215Z" fill="black"/>
<path d="M325.845 49.5461C325.343 51.0584 324.258 52.3663 322.779 53.2414C321.3 54.1165 319.521 54.503 317.754 54.3336C316.524 54.3624 315.302 54.1536 314.172 53.7217C313.043 53.2897 312.033 52.6451 311.213 51.8324C310.392 51.0197 309.781 50.0585 309.422 49.0154C309.063 47.9724 308.964 46.8725 309.132 45.7921C308.968 44.7084 309.069 43.6061 309.427 42.56C309.786 41.5138 310.394 40.5481 311.21 39.7283C312.026 38.9085 313.031 38.2538 314.157 37.8083C315.283 37.3629 316.504 37.1372 317.737 37.1465C322.931 37.1465 326.068 40.2923 326.068 45.4888V46.6284H312.888V46.8114C312.83 47.4188 312.915 48.0303 313.14 48.6066C313.364 49.183 313.721 49.7113 314.189 50.1578C314.658 50.6043 315.226 50.959 315.858 51.1991C316.49 51.4393 317.171 51.5595 317.859 51.5521C318.739 51.6455 319.631 51.5046 320.421 51.1474C321.211 50.7901 321.864 50.2327 322.295 49.546L325.845 49.5461ZM312.888 44.213H322.311C322.358 43.6579 322.273 43.1003 322.062 42.576C321.851 42.0517 321.519 41.5723 321.087 41.1686C320.654 40.7649 320.132 40.4459 319.552 40.2319C318.973 40.0179 318.349 39.9138 317.721 39.9261C317.084 39.9185 316.451 40.0241 315.861 40.2368C315.271 40.4496 314.734 40.7651 314.284 41.1647C313.833 41.5644 313.478 42.04 313.238 42.5636C312.998 43.0872 312.879 43.648 312.888 44.213Z" fill="black"/>
<path d="M341.461 37.4659H349.877C353.528 37.4659 355.669 39.1061 355.669 41.6738C355.675 42.4886 355.365 43.2804 354.791 43.9167C354.217 44.553 353.414 44.9952 352.516 45.1694V45.4278C353.606 45.4888 354.628 45.9187 355.371 46.6287C356.113 47.3387 356.52 48.2744 356.507 49.2427C356.507 52.13 354.058 54.0141 349.962 54.0141H341.461V37.4659ZM345.113 39.9728V44.2578H348.764C350.99 44.2578 352.055 43.4988 352.055 42.0991C352.055 40.8089 351.128 39.9727 349.173 39.9727L345.113 39.9728ZM345.113 46.6588V51.5074H349.48C351.658 51.5074 352.824 50.6551 352.824 49.0903C352.824 47.4341 351.504 46.6589 349.019 46.6589L345.113 46.6588Z" fill="black"/>
</svg>
